<svg class="text-gray-200 w-5 h-5" viewBox="0 0 20 16" fill="none" xmlns="http://www.w3.org/2000/svg"><path d="M18.9832 6.64169C18.9048 6.545 18.8057 6.46712 18.6932 6.41376C18.5807 6.36041 18.4577 6.33293 18.3332 6.33335H16.6665V5.50002C16.6665 4.83698 16.4031 4.20109 15.9343 3.73225C15.4655 3.26341 14.8296 3.00002 14.1665 3.00002H8.93319L8.66652 2.16669C8.49365 1.67771 8.17298 1.2546 7.74894 0.955986C7.3249 0.657367 6.81849 0.498019 6.29986 0.500019H3.33319C2.67015 0.500019 2.03426 0.763411 1.56542 1.23225C1.09658 1.70109 0.833191 2.33698 0.833191 3.00002V13C0.833191 13.6631 1.09658 14.2989 1.56542 14.7678C2.03426 15.2366 2.67015 15.5 3.33319 15.5H15.3332C15.9009 15.4984 16.4511 15.3036 16.8933 14.9476C17.3356 14.5917 17.6435 14.0959 17.7665 13.5417L19.1665 7.35002C19.1919 7.22578 19.1885 7.0974 19.1568 6.97466C19.125 6.85191 19.0656 6.73803 18.9832 6.64169ZM4.47486 13.1834C4.43252 13.3713 4.32635 13.5388 4.17441 13.6574C4.02247 13.7759 3.83416 13.8381 3.64152 13.8334H3.33319C3.11218 13.8334 2.90022 13.7456 2.74394 13.5893C2.58765 13.433 2.49986 13.221 2.49986 13V3.00002C2.49986 2.779 2.58765 2.56704 2.74394 2.41076C2.90022 2.25448 3.11218 2.16669 3.33319 2.16669H6.29986C6.48158 2.1572 6.66141 2.20746 6.81189 2.30978C6.96236 2.4121 7.07521 2.56087 7.13319 2.73335L7.58319 4.10002C7.63667 4.25897 7.73686 4.39809 7.87067 4.49919C8.00447 4.60029 8.16567 4.65867 8.33319 4.66669H14.1665C14.3875 4.66669 14.5995 4.75448 14.7558 4.91076C14.9121 5.06704 14.9999 5.27901 14.9999 5.50002V6.33335H6.66652C6.47389 6.32864 6.28558 6.39084 6.13364 6.50935C5.9817 6.62786 5.87553 6.79537 5.83319 6.98335L4.47486 13.1834ZM16.1415 13.1834C16.0992 13.3713 15.993 13.5388 15.8411 13.6574C15.6891 13.7759 15.5008 13.8381 15.3082 13.8334H6.00819C6.05123 13.7405 6.08204 13.6425 6.09986 13.5417L7.33319 8.00002H17.3332L16.1415 13.1834Z" fill="currentColor" style="--darkreader-inline-fill: currentColor;" data-darkreader-inline-fill="" data-path="0.1.1.1.3.2.0.0.0.0"/></svg>