<svg xmlns="http://www.w3.org/2000/svg" xmlns:xlink="http://www.w3.org/1999/xlink" version="1.1" width="256" height="256" viewBox="0 0 256 256" xml:space="preserve" class="text-gray-200 w-5 h-5"><g transform="translate(128 128) scale(0.72 0.72)" style="" data-path="0.1.1.1.1.3.0.0.0.0"><g style="stroke: none; stroke-width: 0px; stroke-dasharray: none; stroke-linecap: butt; stroke-linejoin: miter; stroke-miterlimit: 10; fill: none; fill-rule: nonzero; opacity: 1; --darkreader-inline-stroke: none; --darkreader-inline-fill: none;" transform="translate(-175.05 -175.05000000000004) scale(3.89 3.89)" data-path="0.1.1.1.1.3.0.0.0.0.0" data-darkreader-inline-stroke="" data-darkreader-inline-fill=""><path fill="currentColor" d="M 90 40.5 h -5.238 C 82.684 22.021 67.979 7.316 49.5 5.238 V 0 h -9 v 5.238 C 22.021 7.316 7.316 22.021 5.238 40.5 H 0 v 9 h 5.238 C 7.316 67.979 22.021 82.684 40.5 84.762 V 90 h 9 v -5.238 C 67.979 82.684 82.684 67.979 84.762 49.5 H 90 V 40.5 z M 49.5 75.691 v -4.647 h -9 v 4.647 C 26.99 73.719 16.281 63.01 14.308 49.5 h 4.648 v -9 h -4.648 C 16.281 26.99 26.99 16.281 40.5 14.308 v 4.648 h 9 v -4.648 C 63.01 16.281 73.719 26.99 75.691 40.5 h -4.647 v 9 h 4.647 C 73.719 63.01 63.01 73.719 49.5 75.691 z" style="stroke: none; stroke-width: 1px; stroke-dasharray: none; stroke-linecap: butt; stroke-linejoin: miter; stroke-miterlimit: 10; fill-rule: nonzero; opacity: 1; --darkreader-inline-stroke: none; --darkreader-inline-fill: currentColor;" transform=" matrix(1 0 0 1 0 0) " stroke-linecap="round" data-path="0.1.1.1.1.3.0.0.0.0.0.0" data-darkreader-inline-stroke="" data-darkreader-inline-fill=""/><polygon fill="currentColor" points="57,40.5 49.5,40.5 49.5,33 40.5,33 40.5,40.5 33,40.5 33,49.5 40.5,49.5 40.5,57 49.5,57 49.5,49.5 57,49.5 " style="stroke: none; stroke-width: 1px; stroke-dasharray: none; stroke-linecap: butt; stroke-linejoin: miter; stroke-miterlimit: 10; fill-rule: nonzero; opacity: 1; --darkreader-inline-stroke: none; --darkreader-inline-fill: currentColor;" transform="  matrix(1 0 0 1 0 0) " data-path="0.1.1.1.1.3.0.0.0.0.0.1" data-darkreader-inline-stroke="" data-darkreader-inline-fill=""/></g></g></svg>