<svg class="text-gray-200 w-5 h-5" viewBox="0 0 18 18" fill="none" xmlns="http://www.w3.org/2000/svg"><path d="M14.8802 0.666626H3.21356C2.55074 0.667349 1.91528 0.930974 1.44659 1.39966C0.97791 1.86834 0.714286 2.50381 0.713562 3.16663V14.8333C0.714286 15.4961 0.97791 16.1316 1.44659 16.6003C1.91528 17.0689 2.55074 17.3326 3.21356 17.3333H14.8802C15.543 17.3326 16.1785 17.0689 16.6472 16.6003C17.1159 16.1316 17.3795 15.4961 17.3802 14.8333V3.16663C17.3795 2.50381 17.1159 1.86834 16.6472 1.39966C16.1785 0.930974 15.543 0.667349 14.8802 0.666626ZM3.21356 2.33329H14.8802C15.1012 2.33351 15.313 2.42138 15.4692 2.57761C15.6255 2.73385 15.7133 2.94568 15.7136 3.16663V9.83329H13.6595C13.3851 9.83307 13.1149 9.90072 12.8729 10.0302C12.631 10.1597 12.4248 10.347 12.2728 10.5755L11.1009 12.3333H6.99286L5.82099 10.5755C5.66896 10.347 5.4628 10.1597 5.22085 10.0302C4.9789 9.90072 4.70869 9.83307 4.43427 9.83329H2.38023V3.16663C2.38045 2.94568 2.46832 2.73385 2.62455 2.57761C2.78078 2.42138 2.99262 2.33351 3.21356 2.33329ZM14.8802 15.6666H3.21356C2.99262 15.6664 2.78078 15.5785 2.62455 15.4223C2.46832 15.2661 2.38045 15.0542 2.38023 14.8333V11.5H4.43427L5.60615 13.2578C5.75817 13.4862 5.96434 13.6736 6.20628 13.803C6.44823 13.9325 6.71844 14.0002 6.99286 14H11.1009C11.3754 14.0002 11.6456 13.9325 11.8875 13.803C12.1295 13.6736 12.3356 13.4862 12.4877 13.2578L13.6595 11.5H15.7136V14.8333C15.7133 15.0542 15.6255 15.2661 15.4692 15.4223C15.313 15.5785 15.1012 15.6664 14.8802 15.6666Z" fill="currentColor" style="--darkreader-inline-fill: currentColor;" data-darkreader-inline-fill="" data-path="0.1.1.1.3.1.0.0.0.0"/></svg>