<svg class="text-gray-200 w-5 h-5" viewBox="0 0 18 18" fill="none" xmlns="http://www.w3.org/2000/svg"><path d="M8.40848 11.7416C8.37264 11.7812 8.33925 11.823 8.30848 11.8666C8.27694 11.9131 8.25172 11.9635 8.23348 12.0166C8.20945 12.0639 8.1926 12.1144 8.18348 12.1666C8.17939 12.2221 8.17939 12.2778 8.18348 12.3333C8.18066 12.4426 8.2035 12.5511 8.25015 12.65C8.28757 12.7534 8.34728 12.8473 8.42505 12.9251C8.50282 13.0028 8.59673 13.0625 8.70015 13.1C8.7999 13.144 8.90775 13.1668 9.01681 13.1668C9.12587 13.1668 9.23373 13.144 9.33348 13.1C9.43689 13.0625 9.53081 13.0028 9.60857 12.9251C9.68634 12.8473 9.74605 12.7534 9.78348 12.65C9.82048 12.5486 9.83746 12.4411 9.83348 12.3333C9.83411 12.2236 9.81309 12.1149 9.77162 12.0134C9.73015 11.9118 9.66905 11.8195 9.59181 11.7416C9.51434 11.6635 9.42218 11.6015 9.32063 11.5592C9.21908 11.5169 9.11016 11.4951 9.00015 11.4951C8.89014 11.4951 8.78121 11.5169 8.67966 11.5592C8.57812 11.6015 8.48595 11.6635 8.40848 11.7416ZM9.00015 0.666626C7.35197 0.666626 5.7408 1.15537 4.37039 2.07105C2.99998 2.98672 1.93188 4.28821 1.30115 5.81093C0.67042 7.33365 0.505392 9.0092 0.826935 10.6257C1.14848 12.2422 1.94215 13.7271 3.10759 14.8925C4.27303 16.058 5.75788 16.8516 7.37439 17.1732C8.9909 17.4947 10.6665 17.3297 12.1892 16.699C13.7119 16.0682 15.0134 15.0001 15.9291 13.6297C16.8447 12.2593 17.3335 10.6481 17.3335 8.99996C17.3335 7.90561 17.1179 6.82198 16.6991 5.81093C16.2804 4.79988 15.6665 3.88122 14.8927 3.1074C14.1189 2.33358 13.2002 1.71975 12.1892 1.30096C11.1781 0.882174 10.0945 0.666626 9.00015 0.666626ZM9.00015 15.6666C7.6816 15.6666 6.39267 15.2756 5.29634 14.5431C4.20002 13.8105 3.34553 12.7694 2.84095 11.5512C2.33637 10.333 2.20434 8.99256 2.46158 7.69936C2.71881 6.40615 3.35375 5.21826 4.2861 4.28591C5.21845 3.35356 6.40634 2.71863 7.69954 2.46139C8.99275 2.20416 10.3332 2.33618 11.5514 2.84076C12.7695 3.34535 13.8107 4.19983 14.5433 5.29616C15.2758 6.39249 15.6668 7.68142 15.6668 8.99996C15.6668 10.7681 14.9644 12.4638 13.7142 13.714C12.4639 14.9642 10.7683 15.6666 9.00015 15.6666ZM9.00015 4.83329C8.56103 4.83301 8.12959 4.94839 7.74924 5.16783C7.36888 5.38726 7.05304 5.70301 6.83348 6.08329C6.77318 6.17814 6.7327 6.28421 6.71446 6.39511C6.69622 6.50601 6.7006 6.61945 6.72734 6.72861C6.75408 6.83778 6.80262 6.94041 6.87005 7.03032C6.93748 7.12024 7.0224 7.19558 7.1197 7.25183C7.21701 7.30808 7.32469 7.34406 7.43626 7.35761C7.54783 7.37116 7.66099 7.362 7.76893 7.33069C7.87687 7.29938 7.97736 7.24655 8.06435 7.17539C8.15135 7.10423 8.22305 7.01621 8.27515 6.91663C8.34857 6.78946 8.45429 6.68394 8.5816 6.61077C8.70892 6.53761 8.8533 6.49938 9.00015 6.49996C9.22116 6.49996 9.43312 6.58776 9.5894 6.74404C9.74568 6.90032 9.83348 7.11228 9.83348 7.33329C9.83348 7.55431 9.74568 7.76627 9.5894 7.92255C9.43312 8.07883 9.22116 8.16663 9.00015 8.16663C8.77913 8.16663 8.56717 8.25442 8.41089 8.4107C8.25461 8.56698 8.16681 8.77895 8.16681 8.99996V9.83329C8.16681 10.0543 8.25461 10.2663 8.41089 10.4225C8.56717 10.5788 8.77913 10.6666 9.00015 10.6666C9.22116 10.6666 9.43312 10.5788 9.5894 10.4225C9.74568 10.2663 9.83348 10.0543 9.83348 9.83329V9.68329C10.3846 9.48331 10.8479 9.09598 11.1425 8.58902C11.437 8.08205 11.5439 7.4877 11.4446 6.90987C11.3454 6.33203 11.0461 5.80747 10.5993 5.42789C10.1525 5.0483 9.58643 4.83784 9.00015 4.83329Z" fill="currentColor" style="--darkreader-inline-fill: currentColor;" data-darkreader-inline-fill="" data-path="0.1.1.1.3.0.0.0.0.0"/></svg>